<svg xmlns="http://www.w3.org/2000/svg" enable-background="new 0 0 40 40" viewBox="0 0 40 40" id="yamaha">
  <switch>
    <g>
      <path fill="#283590" d="M35.5,30.5l-3-3.6c-0.1-0.2-0.4-0.2-0.6-0.1c-1.5,0.8-2.4-0.6-2.6-1.7c-0.2-0.7-1-1.7-1.9-2.2
			L26,22l7.6-4.4l-1-1.7l-8.6,5l-1-0.6v-1.2l8.6-5l-1-1.7L23,16.8V15c0-1-0.5-2.2-1-2.8c-0.9-0.7-1.6-2.1-0.2-3.1
			C22,9.1,22,8.8,22,8.6l-1.6-4.4c-0.1-0.4-0.6-0.4-0.8,0L18,8.6c-0.1,0.2,0,0.4,0.2,0.6c1.4,0.9,0.7,2.4-0.2,3.1
			c-0.5,0.5-1,1.8-1,2.8v1.8l-7.6-4.4l-1,1.7l8.6,5v1.2l-1,0.6l-8.6-5l-1,1.7L14,22l-1.6,0.9c-0.9,0.5-1.7,1.5-1.9,2.2
			c-0.2,1.1-1,2.5-2.6,1.7c-0.2-0.1-0.4,0-0.6,0.1l-3,3.6c-0.3,0.3,0,0.7,0.4,0.7l4.6-0.8c0.2,0,0.4-0.2,0.4-0.4
			c0.1-1.7,1.7-1.8,2.7-1.4c0.7,0.2,2,0,2.9-0.5l1.6-0.9V36h2V26l1-0.6l1,0.6v10h2v-8.8l1.6,0.9c0.9,0.5,2.1,0.7,2.9,0.5
			c1-0.4,2.6-0.3,2.7,1.4c0,0.2,0.2,0.4,0.4,0.4l4.6,0.8C35.5,31.3,35.8,30.8,35.5,30.5z M20,23.2l-1-0.6v-1.2l1-0.6l1,0.6v1.2
			L20,23.2z M19,15c0-0.5,0.5-1,1-1s1,0.5,1,1v3l-1,0.6L19,18V15z M14.4,26.4c-0.5,0.3-1.1,0.1-1.4-0.4c-0.3-0.5-0.1-1.1,0.4-1.4
			l2.6-1.5l1,0.6v1.2L14.4,26.4z M26.9,26c-0.3,0.5-0.9,0.6-1.4,0.4L23,24.9v-1.2l1-0.6l2.6,1.5C27,24.9,27.2,25.5,26.9,26z"></path>
    </g>
  </switch>
</svg>
